HIERARCHY
ROOT hip
{
	OFFSET 0.000000 0.000000 0.000000 
	CHANNELS 6 Xposition Yposition Zposition Xrotation Zrotation Yrotation
	JOINT abdomen
	{
		OFFSET 0.000000 3.402643 0.000000 
		CHANNELS 3 Xrotation Zrotation Yrotation
		JOINT chest
		{
			OFFSET 0.000000 8.438565 -0.680529 
			CHANNELS 3 Xrotation Zrotation Yrotation
			JOINT neck
			{
				OFFSET 0.000000 10.207942 -0.272212 
				CHANNELS 3 Xrotation Zrotation Yrotation
				JOINT head
				{
					OFFSET 0.000000 3.130431 0.000000 
					CHANNELS 3 Xrotation Zrotation Yrotation
					End Site
					{
						OFFSET 0.000000 3.130435 0.000000 
					}
				}
			}
			JOINT lCollar
			{
				OFFSET 3.470700 6.669187 -0.816635 
				CHANNELS 3 Yrotation Zrotation Xrotation
				JOINT lShldr
				{
					OFFSET 3.198488 0.000000 0.000000 
					CHANNELS 3 Zrotation Yrotation Xrotation
					JOINT lForeArm
					{
						OFFSET 10.139888 0.000000 0.000000 
						CHANNELS 3 Yrotation Zrotation Xrotation
						JOINT lHand
						{
							OFFSET 8.370511 0.000000 0.000000 
							CHANNELS 3 Zrotation Yrotation Xrotation
							End Site
							{
								OFFSET 4.083176 0.000000 0.000000 
							}
						}
					}
				}
			}
			JOINT rCollar
			{
				OFFSET -3.470700 6.669187 -0.816635 
				CHANNELS 3 Yrotation Zrotation Xrotation
				JOINT rShldr
				{
					OFFSET -3.198488 0.000000 0.000000 
					CHANNELS 3 Zrotation Yrotation Xrotation
					JOINT rForeArm
					{
						OFFSET -10.139888 0.000000 0.000000 
						CHANNELS 3 Yrotation Zrotation Xrotation
						JOINT rHand
						{
							OFFSET -8.370511 0.000000 0.000000 
							CHANNELS 3 Zrotation Yrotation Xrotation
							End Site
							{
								OFFSET -4.083176 0.000000 0.000000 
							}
						}
					}
				}
			}
		}
	}
	JOINT lThigh
	{
		OFFSET 5.308129 -1.633274 1.361059 
		CHANNELS 3 Xrotation Zrotation Yrotation
		JOINT lShin
		{
			OFFSET -2.041588 -20.007561 0.000000 
			CHANNELS 3 Xrotation Zrotation Yrotation
			JOINT lFoot
			{
				OFFSET 0.000000 -19.190928 -1.224953 
				CHANNELS 3 Xrotation Yrotation Zrotation
				End Site
				{
					OFFSET 0.000000 -2.449906 4.627600 
				}
			}
		}
	}
	JOINT rThigh
	{
		OFFSET -5.308129 -1.633274 1.361059 
		CHANNELS 3 Xrotation Zrotation Yrotation
		JOINT rShin
		{
			OFFSET 2.041588 -20.007561 0.000000 
			CHANNELS 3 Xrotation Zrotation Yrotation
			JOINT rFoot
			{
				OFFSET 0.000000 -19.190928 -1.224953 
				CHANNELS 3 Xrotation Yrotation Zrotation
				End Site
				{
					OFFSET 0.000000 -2.449906 4.627600 
				}
			}
		}
	}
}
MOTION
Frames: 16
Frame Time: 0.016667
-1.244752 41.001575 1.020746 0.390647 -0.605455 -9.418290 -25.145700 0.464460 0.545546 11.786800 -0.453619 0.304351 15.702700 4.419000 0.220877 -8.603520 0.000000 0.000000 2.000000 -2.000000 0.000000 96.949203 148.606003 -1.155610 33.047199 -0.329447 0.074614 5.254250 -1.823440 -130.098007 -2.000000 2.000000 0.000000 -104.057999 -153.320999 8.084170 -31.699600 0.331169 0.071848 6.288760 2.224520 -134.423004 -8.856209 -8.198946 -24.500748 29.623371 2.772042 2.209070 -26.889929 13.405684 6.652792 -5.055769 11.521359 15.335954 27.116486 -2.756614 -2.058244 -36.891529 -27.696659 -19.547840 
-1.234788 41.207581 1.011173 0.498063 -0.458967 -9.574380 -25.203800 0.503522 0.677497 11.738000 -0.424608 0.378372 15.434600 5.232320 0.008293 -8.603520 0.000000 0.000000 2.000000 -2.000000 0.000000 96.236801 148.679993 -3.596850 31.826500 -0.331010 0.072156 5.205830 -1.956600 -128.597000 -2.000000 2.000000 0.000000 -102.679001 -152.955002 5.641870 -30.761999 0.332329 0.069935 6.308780 2.173930 -134.003998 -8.970559 -8.304494 -24.352962 29.674030 2.752493 2.203387 -26.638647 13.862648 6.843712 -4.418166 11.119807 12.976915 27.006285 -2.772463 -2.044089 -43.643265 -22.225159 -19.939505 
-1.200525 41.111004 0.977042 0.644564 -0.576135 -9.713610 -25.252399 0.548532 0.742142 11.698800 -0.550002 0.417739 13.911400 3.894720 -0.658061 -8.603520 0.000000 0.000000 2.000000 -2.000000 0.000000 95.583397 148.862000 -6.135500 30.908501 -0.332150 0.070286 5.176850 -2.037380 -127.674004 -2.000000 2.000000 0.000000 -101.438004 -152.923004 2.819510 -28.857700 0.334587 0.065992 6.399840 1.875360 -131.395004 -9.180571 -8.196084 -24.314079 29.643864 2.761460 2.206175 -26.534519 13.718835 6.752672 -4.847816 11.345790 15.564931 26.879732 -2.761827 -2.043593 -41.354877 -22.726822 -18.831556 
-1.168115 41.029606 0.962237 0.537128 -0.478495 -9.760430 -25.183701 0.502494 0.785629 11.708500 -0.569316 0.440181 13.669600 4.366460 -0.692221 -8.603520 0.000000 0.000000 2.000000 -2.000000 0.000000 -85.283401 30.485201 170.457993 29.863600 -0.333411 0.068135 5.087930 -2.234380 -125.403999 -2.000000 2.000000 0.000000 -99.114899 -153.281006 -3.927680 -27.607700 0.335998 0.063365 6.513120 1.408800 -127.413002 -9.230560 -8.457821 -24.413937 30.040718 2.727398 2.240466 -26.908079 13.651514 6.801906 -4.962786 11.237905 15.679458 26.426680 -2.766821 -2.022369 -36.515884 -27.301472 -19.042482 
-1.135279 41.005081 0.923741 0.439483 -0.664043 -9.809900 -25.173700 0.537328 0.823075 11.581400 -0.665578 0.466441 12.937500 3.958300 -1.031290 -8.603520 0.000000 0.000000 2.000000 -2.000000 0.000000 -85.700996 29.640499 168.384995 28.945601 -0.334486 0.066227 5.052600 -2.304920 -124.547997 -2.000000 2.000000 0.000000 82.719398 -26.424999 171.434006 -26.748301 0.336935 0.061540 6.546110 1.243810 -126.040001 -9.307522 -8.430232 -24.548819 30.521738 2.736791 2.274210 -27.354565 13.495445 6.825545 -4.858550 11.304386 15.378614 26.139093 -2.784931 -2.001149 -35.564575 -27.938181 -18.808208 
-1.115580 40.972492 0.873998 0.332058 -0.722644 -9.887120 -25.213100 0.565749 0.788020 11.405700 -0.597764 0.447846 11.938900 4.049700 -1.133270 -8.603520 0.000000 0.000000 2.000000 -2.000000 0.000000 -86.108803 28.990801 166.169006 28.427999 -0.335079 0.065144 5.026080 -2.360620 -123.899002 -2.000000 2.000000 0.000000 84.122597 -25.750601 167.001999 -25.664301 0.338077 0.059220 6.580290 0.989125 -123.907997 -9.174485 -8.627034 -25.456797 30.717409 2.740782 2.272108 -27.822145 13.926854 7.155555 -4.815592 11.300687 15.142452 26.030666 -2.781553 -1.982549 -34.599384 -28.831223 -18.734095 
-1.080722 40.975994 0.801275 0.380873 -0.478505 -9.925140 -25.290899 0.491536 0.811928 11.239700 -0.587845 0.447997 11.393300 4.614190 -1.151070 -8.603520 0.000000 0.000000 2.000000 -2.000000 0.000000 -86.194603 28.099100 164.832993 27.978800 -0.335585 0.064199 4.998330 -2.410620 -123.297997 -2.000000 2.000000 0.000000 85.329399 -24.764200 162.761002 -24.658501 0.339097 0.057047 6.613010 0.764836 -122.027000 -9.254895 -8.874912 -25.561974 30.492214 2.733520 2.264029 -27.695910 14.197322 7.290422 -5.081765 10.956247 14.792450 26.169870 -2.767375 -1.987070 -34.558769 -28.327497 -18.417330 
-1.049208 40.981457 0.740533 0.449231 -0.429674 -10.042500 -25.291500 0.569546 0.742788 11.327900 -0.395208 0.415774 10.830600 4.959870 -0.990897 -8.603520 0.000000 0.000000 2.000000 -2.000000 0.000000 -86.414902 26.316000 162.350998 26.670200 -0.337019 0.061426 4.881990 -2.629800 -120.676003 -2.000000 2.000000 0.000000 85.794601 -23.459600 160.186005 -23.545200 0.340182 0.054622 6.631010 0.561559 -120.341003 -9.316557 -8.934413 -25.694220 30.326900 2.712671 2.251580 -27.982313 13.733417 7.140670 -5.205189 10.851097 14.934794 26.152197 -2.755404 -2.004141 -35.150558 -28.085165 -18.691521 
-1.006205 40.964451 0.681917 0.234378 -0.283201 -9.796130 -25.203699 0.410283 0.678335 11.357100 -0.482001 0.371028 10.924100 4.871960 -1.170650 -8.603520 0.000000 0.000000 2.000000 -2.000000 0.000000 -86.097801 24.201000 159.845993 25.312799 -0.338438 0.058514 4.740070 -2.875630 -117.584000 -2.000000 2.000000 0.000000 85.909401 -22.099701 159.085007 -22.500200 0.341157 0.052328 6.649050 0.335176 -118.440002 -9.245605 -9.033664 -25.149323 30.229578 2.709188 2.261940 -27.412355 13.747752 6.998576 -5.176500 10.654491 14.899743 26.452694 -2.794050 -2.008095 -36.039902 -27.503281 -18.841959 
-0.981850 40.987164 0.596083 0.410159 -0.205073 -9.933140 -25.330200 0.362073 0.743855 11.181200 -0.529935 0.399991 11.314600 4.958340 -1.258360 -8.603520 0.000000 0.000000 2.000000 -2.000000 0.000000 -85.284798 22.412399 159.167007 24.853800 -0.338902 0.057523 4.657030 -3.012030 -115.839996 -2.000000 2.000000 0.000000 85.702797 -20.634501 158.945999 -21.562700 0.341996 0.050254 6.649540 0.066742 -116.224998 -9.419983 -9.178809 -25.834726 30.171545 2.689960 2.238506 -27.685137 14.138379 7.291254 -5.483790 10.556283 14.682639 26.230679 -2.759790 -2.014141 -34.464970 -28.747169 -18.641653 
-0.963570 40.963799 0.527303 0.527377 -0.644504 -10.211100 -25.408701 0.623698 0.748773 11.122700 -0.452777 0.426791 11.505300 4.922540 -1.453010 -8.603520 0.000000 0.000000 2.000000 -2.000000 0.000000 -84.647697 20.672501 158.460999 24.609600 -0.339146 0.056993 4.562340 -3.136590 -114.261002 -2.000000 2.000000 0.000000 84.910599 -18.955500 159.233002 -20.859600 0.342603 0.048690 6.653570 -0.176267 -114.203003 -9.676137 -8.793877 -25.945528 30.466448 2.697753 2.274693 -28.351448 13.845511 7.351552 -5.422121 11.070205 15.471587 25.515821 -2.726787 -1.978656 -33.224331 -30.054441 -18.648806 
-0.940664 40.987812 0.463795 0.595769 -0.849563 -10.184800 -25.331699 0.728855 0.613367 11.406100 -0.376013 0.373066 12.698500 5.678940 -1.197980 -8.603520 0.000000 0.000000 2.000000 -2.000000 0.000000 -83.845596 18.827400 158.718994 24.883101 -0.338873 0.057586 4.486520 -3.235720 -112.946999 -2.000000 2.000000 0.000000 83.854599 -16.739500 159.608994 -20.224800 0.343135 0.047272 6.654720 -0.339487 -112.834000 -9.851028 -8.477174 -25.474091 30.534071 2.710012 2.276821 -28.137688 13.739307 7.205731 -5.488368 11.284419 15.538219 25.583403 -2.738191 -1.980031 -34.173386 -28.935127 -18.598953 
-0.876985 40.996769 0.409322 0.556647 -0.273425 -10.344500 -25.350201 0.448853 0.670421 11.532800 -0.511173 0.364378 13.035600 5.277140 -1.331190 -8.603520 0.000000 0.000000 2.000000 -2.000000 0.000000 -82.251999 16.171499 158.889999 24.131100 -0.339617 0.055953 4.433040 -3.307060 -111.980003 -2.000000 2.000000 0.000000 82.945396 -14.504600 160.238998 -19.882999 0.343414 0.046505 6.649910 -0.427297 -112.099998 -9.634237 -9.309919 -26.513374 30.094244 2.685982 2.258272 -28.469709 14.521228 7.745681 -5.822346 10.545802 15.275291 25.909193 -2.727082 -1.992441 -33.949261 -28.517315 -18.213682 
-0.842068 40.981712 0.326024 0.273456 -0.673820 -10.208400 -25.370199 0.468944 0.585440 11.239500 -0.722760 0.343175 13.791900 5.137010 -1.582200 -8.603520 0.000000 0.000000 2.000000 -2.000000 0.000000 -80.561996 13.791200 160.009003 24.101801 -0.339646 0.055890 4.402150 -3.355800 -111.291000 -2.000000 2.000000 0.000000 81.656097 -12.085600 161.524002 -19.306900 0.343875 0.045210 6.644600 -0.455358 -111.864998 -9.431685 -8.989002 -26.636824 30.248941 2.702415 2.240431 -28.804592 14.290212 7.686758 -5.560498 10.980853 15.321323 26.094646 -2.745687 -2.013120 -34.154285 -28.086292 -18.050444 
-0.808526 41.020649 0.214324 0.908222 -0.371047 -11.890700 -25.610500 0.720749 1.229560 11.308000 -0.636153 0.787174 14.419200 5.561300 -1.280390 -8.603520 0.000000 0.000000 2.000000 -2.000000 0.000000 -79.065300 10.673200 158.785004 23.388901 -0.340331 0.054333 4.194930 -3.588970 -108.037003 -2.000000 2.000000 0.000000 80.580597 -9.575530 161.382996 -19.433800 0.343775 0.045496 6.626670 -0.599141 -110.689003 -10.031786 -9.113430 -26.087685 29.919008 2.666852 2.246461 -29.368856 14.779500 8.289804 -6.516685 10.545250 15.594365 25.873100 -2.706692 -2.017765 -32.168304 -27.996725 -16.765615 
-0.800651 41.020649 0.131276 0.703137 -0.332006 -11.957300 -25.442600 0.594641 1.419620 11.483300 -0.867911 0.861237 15.311200 5.549350 -1.618920 -8.603520 0.000000 0.000000 2.000000 -2.000000 0.000000 -76.809601 7.493140 160.363998 23.252199 -0.340460 0.054033 4.146610 -3.649180 -107.157997 -2.000000 2.000000 0.000000 79.261703 -6.705410 161.820007 -19.648701 0.343603 0.045979 6.623310 -0.647924 -110.278000 -9.882953 -9.199612 -26.117662 29.829117 2.683003 2.242257 -29.380978 15.129848 8.485763 -6.444702 10.523847 15.831175 25.969753 -2.717928 -2.009029 -32.504257 -28.515526 -17.231874 
